<?xml version="1.0" standalone="no"?><!DOCTYPE svg PUBLIC "-//W3C//DTD SVG 1.1//EN" "http://www.w3.org/Graphics/SVG/1.1/DTD/svg11.dtd"><svg t="1588555837501" class="icon" viewBox="0 0 1024 1024" version="1.1" xmlns="http://www.w3.org/2000/svg" p-id="2879" width="24" height="24" xmlns:xlink="http://www.w3.org/1999/xlink"><defs><style type="text/css"></style></defs><path d="M698.181818 546.909091h-151.272727V698.181818a34.909091 34.909091 0 1 1-69.818182 0v-151.272727H325.818182a34.909091 34.909091 0 1 1 0-69.818182h151.272727V325.818182a34.909091 34.909091 0 1 1 69.818182 0v151.272727H698.181818a34.909091 34.909091 0 0 1 0 69.818182M512 23.272727C242.082909 23.272727 23.272727 242.082909 23.272727 512s218.810182 488.727273 488.727273 488.727273 488.727273-218.810182 488.727273-488.727273S781.917091 23.272727 512 23.272727" fill="#409EFF" p-id="2880"></path></svg>