<?xml version="1.0" standalone="no"?><!DOCTYPE svg PUBLIC "-//W3C//DTD SVG 1.1//EN" "http://www.w3.org/Graphics/SVG/1.1/DTD/svg11.dtd"><svg t="1588559588611" class="icon" viewBox="0 0 1024 1024" version="1.1" xmlns="http://www.w3.org/2000/svg" p-id="24303" width="32" height="32" xmlns:xlink="http://www.w3.org/1999/xlink"><defs><style type="text/css"></style></defs><path d="M821.571103 200.795189C738.506269 117.744681 628.075157 72.006987 510.610862 72.006987c-117.478621 0-227.919966 45.741787-310.975591 128.788202C116.571461 283.851836 70.818417 394.306484 70.818417 511.800455c0 117.464295 45.753043 227.895407 128.817877 310.970474 83.055624 83.050508 193.495946 128.822994 310.975591 128.822994 117.463272 0 227.894384-45.771463 310.974567-128.822994 83.065857-83.075067 128.817877-193.506179 128.817877-310.970474C950.403307 394.33616 904.651286 283.851836 821.571103 200.795189L821.571103 200.795189 821.571103 200.795189zM752.090659 383.005091 452.580191 682.521698l0 0c-0.192382 0.188288-0.38067 0.322341-0.568958 0.51063-5.713119 5.442966-13.068643 8.184403-20.423145 8.184403-2.818185 0-5.637394-0.375553-8.377808-1.179872-0.024559-0.028653-0.053212-0.028653-0.077771-0.028653-1.291412-0.400113-2.524496-0.881067-3.762697-1.421372-3.164063-1.450025-6.169513-3.434216-8.775874-6.065136l-0.014326 0L268.8384 540.789697c-11.595083-11.595083-11.595083-30.386054 0-41.98216 11.594059-11.599176 30.386054-11.599176 41.980113 0l120.769574 120.764458 278.521434-278.547017c11.595083-11.594059 30.386054-11.594059 41.981137 0C763.656065 352.619036 763.656065 371.411031 752.090659 383.005091L752.090659 383.005091 752.090659 383.005091zM752.090659 383.005091" p-id="24304" fill="#409EFF"></path></svg>