<?xml version="1.0" standalone="no"?><!DOCTYPE svg PUBLIC "-//W3C//DTD SVG 1.1//EN" "http://www.w3.org/Graphics/SVG/1.1/DTD/svg11.dtd"><svg t="1588309889339" class="icon" viewBox="0 0 1024 1024" version="1.1" xmlns="http://www.w3.org/2000/svg" p-id="43056" width="32" height="32" xmlns:xlink="http://www.w3.org/1999/xlink"><defs><style type="text/css"></style></defs><path d="M892.5 480.1c17.9-17.5 24.1-43.1 16.2-66.7-7.9-23.9-28.5-40.8-53.6-44.2l-194.1-26c-1.9-0.3-3.6-1.4-4.4-3l-88.3-172.5C557 145.6 534.6 132 509.7 132h-0.6c-25.1 0.2-47.6 14.3-58.5 36.8l-85 174.1c-0.8 1.6-2.4 2.7-4.3 3l-193.6 29.6c-25.1 3.8-45.3 21.1-52.8 45.2-7.4 23.8-0.7 49.3 17.5 66.5L274.1 621c1.2 1.2 1.8 2.8 1.5 4.3l-31.3 191c-4 24.5 6.1 48.7 26.3 63.3 11.5 8.3 25 12.5 38.5 12.5 10.6 0 21.3-2.6 31.1-7.8l172.3-91.5c1.8-0.9 4-0.9 5.7 0l174 88.3c22.6 11.4 49.2 9.2 69.5-6 20-14.9 29.6-39.3 25.1-63.7l-34.9-190.3c-0.3-1.6 0.2-3.2 1.5-4.4l139.1-136.6z" p-id="43057" fill="#409EFF"></path></svg>