<?xml version="1.0" standalone="no"?><!DOCTYPE svg PUBLIC "-//W3C//DTD SVG 1.1//EN" "http://www.w3.org/Graphics/SVG/1.1/DTD/svg11.dtd"><svg t="1588383563307" class="icon" viewBox="0 0 1024 1024" version="1.1" xmlns="http://www.w3.org/2000/svg" p-id="9030" width="32" height="32" xmlns:xlink="http://www.w3.org/1999/xlink"><defs><style type="text/css"></style></defs><path d="M324.57 903.539c-21.306 0-42.516-6.729-60.642-19.809-32.045-23.264-47.744-61.947-41.11-101.004l22.423-130.623c2.619-15.324-2.427-30.926-13.545-41.762l-94.932-92.506c-28.404-27.654-38.4-68.204-26.161-105.855 12.241-37.658 44.195-64.566 83.344-70.265l131.183-19.061a47.304 47.304 0 0 0 35.6-25.79l58.675-118.848c17.564-35.507 52.977-57.557 92.595-57.557 39.614 0 75.122 22.05 92.591 57.557l58.681 118.848c3.083 6.259 7.381 11.68 12.893 15.978 6.542 5.231 14.389 8.595 22.705 9.813l131.184 18.965c39.148 5.698 71.102 32.61 83.343 70.265 12.24 37.656 2.24 78.204-26.165 105.86l-94.926 92.501c-11.118 10.84-16.164 26.443-13.55 41.768l22.423 130.621c6.729 39.053-9.06 77.736-41.11 101.004-32.045 23.262-73.722 26.256-108.759 7.848l-117.35-61.668a47.373 47.373 0 0 0-43.916 0l-117.355 61.668c-15.138 8.128-31.677 12.052-48.119 12.052z m187.521-727.204c-18.403 0-34.193 9.809-42.323 26.347l-58.679 118.852c-15.042 30.457-44.099 51.575-77.737 56.526l-131.183 19.062c-18.222 2.618-32.419 14.671-38.122 32.14-5.699 17.474-1.214 35.601 11.962 48.401l94.927 92.5c24.39 23.732 35.412 57.932 29.713 91.381l-22.423 130.623c-3.084 18.125 3.923 35.412 18.778 46.156 14.859 10.838 33.45 12.145 49.71 3.549l117.354-61.668c30.083-15.791 66.056-15.791 96.139 0l117.355 61.668c16.26 8.596 34.851 7.195 49.71-3.549 14.854-10.842 21.862-28.031 18.777-46.156l-22.423-130.623c-5.794-33.545 5.324-67.648 29.714-91.381l94.927-92.5c13.176-12.801 17.661-30.928 11.962-48.401-5.702-17.469-19.905-29.521-38.122-32.14L690.831 378.06c-18.126-2.615-35.221-10.087-49.61-21.488a104.823 104.823 0 0 1-28.217-35.038L554.42 202.682c-8.13-16.538-24.016-26.347-42.329-26.347z m0 0" p-id="9031" fill="#666666"></path></svg>