<?xml version="1.0" standalone="no"?><!DOCTYPE svg PUBLIC "-//W3C//DTD SVG 1.1//EN" "http://www.w3.org/Graphics/SVG/1.1/DTD/svg11.dtd"><svg t="1588485832166" class="icon" viewBox="0 0 1024 1024" version="1.1" xmlns="http://www.w3.org/2000/svg" p-id="3789" width="32" height="32" xmlns:xlink="http://www.w3.org/1999/xlink"><defs><style type="text/css"></style></defs><path d="M426.542817 0.599756h170.530695C710.527404-1.899228 833.477436 32.886635 911.045912 112.954095c80.167419 77.568476 114.853323 200.518508 112.454298 313.972399v170.530696c2.399025 113.453892-32.286878 236.403924-112.454298 313.972399-77.568476 80.167419-200.518508 114.853323-313.9724 112.454298H426.542817c-113.453892 2.399025-236.403924-32.286878-313.9724-112.454298C32.402998 833.961073-2.282906 711.011041 0.116119 597.557149V427.026454C-2.282906 313.472603 32.402998 190.52257 112.570417 112.954095 190.138893 32.886635 313.088925-1.899228 426.542817 0.599756z" fill="#5A62FF" p-id="3790"></path><path d="M112.570417 112.954095C36.90117 186.224317 1.715469 299.878128 0.116119 407.834254c137.943939 0 249.79848-111.954501 249.798481-249.89844 0-42.782613-10.795613-83.066241-29.687935-118.251942-40.583507 17.892728-77.568476 42.182857-107.656248 73.270223z" fill="#FFFFFF" opacity=".5" p-id="3791"></path><path d="M511.808165 460.912682c-28.288503 0-51.27916 22.990656-51.27916 51.27916s22.990656 51.27916 51.27916 51.27916c28.288503 0 51.27916-22.990656 51.279159-51.27916s-22.990656-51.27916-51.279159-51.27916z" fill="#FFFFFF" p-id="3792"></path><path d="M771.602582 412.532344c-0.099959-31.187325-16.993094-60.475422-43.982125-76.269004L555.79029 235.904127c-27.588788-16.09346-61.974813-16.193419-89.66356-0.099959l-170.530696 98.859822c-27.388869 15.893541-44.282004 45.381557-44.182044 76.96872l0.599757 200.418549c0.099959 31.187325 16.993094 60.475422 43.982125 76.269003L467.826039 788.579516c13.894353 8.096709 29.388057 12.095084 44.981719 12.095085 15.493703 0 30.887447-3.998375 44.681841-11.995125l170.530696-98.859823c27.388869-15.893541 44.282004-45.381557 44.182044-76.968719l-0.599757-200.31859zM511.808165 623.446627c-61.375057 0-111.254785-49.879729-111.254786-111.254785S450.433108 400.937057 511.808165 400.937057 623.06295 450.816785 623.06295 512.191842 573.183221 623.446627 511.808165 623.446627z" fill="#FFFFFF" p-id="3793"></path><path d="M511.808165 460.912682c-28.288503 0-51.27916 22.990656-51.27916 51.27916s22.990656 51.27916 51.27916 51.27916c28.288503 0 51.27916-22.990656 51.279159-51.27916s-22.990656-51.27916-51.279159-51.27916z" fill="#FFFFFF" p-id="3794"></path><path d="M679.0402 651.435253c0 21.291347 3.998375 41.5831 11.29541 60.275503l37.784644-21.891103c27.388869-15.893541 44.282004-45.381557 44.182044-76.968719l-0.299878-110.65503c-55.077616 27.088991-92.96222 83.765957-92.96222 149.239349z" fill="#5A62FF" opacity=".5" p-id="3795"></path></svg>