<?xml version="1.0" standalone="no"?><!DOCTYPE svg PUBLIC "-//W3C//DTD SVG 1.1//EN" "http://www.w3.org/Graphics/SVG/1.1/DTD/svg11.dtd"><svg t="1588487119093" class="icon" viewBox="0 0 1024 1024" version="1.1" xmlns="http://www.w3.org/2000/svg" p-id="77280" width="32" height="32" xmlns:xlink="http://www.w3.org/1999/xlink"><defs><style type="text/css"></style></defs><path d="M1022.92036 182.959a22.587 22.587 0 0 0-12.545-13.874L717.34336 41.875c-10.081-4.474-22.185-0.733-28.091 8.856L588.22036 213.851l-278.822 32.272-15.545-36.551c-2.166-5.069-6.095-9.102-11.015-11.462L32.25536 78.18c-8.506-3.981-18.594-2.411-25.284 4.136-6.788 6.444-8.85 16.429-5.161 25.083l81.213 190.277v485.269c0 7.623 3.883 14.76 10.328 18.891l265.63 172.17c0.401 0.246 0.894 0.15 1.283 0.395 3.391 1.912 7.034 3.195 10.969 3.195 0.888 0 1.724 0 2.606-0.096l496.042-57.406c11.365-1.33 19.975-10.971 19.975-22.387v-484.14l130.756-212.014c3.437-5.511 4.273-12.299 2.308-18.594z m-443.855 77.278v158.25l-186.782 21.647-64.384-150.822 251.166-29.075z m45.058 16.188l179.302 116.091-179.302 20.759v-136.85z m-368.34-41.375l75.806 177.635-208.034-134.788-56.869-133.259 189.097 90.412zM128.08036 334.468l220.624 142.951v436.23L128.08036 770.699V334.468zM393.71636 929.83V485.289l451.083-52.24v444.594L393.71636 929.83z m466.48-554.137L632.39036 228.068l84.856-137.097L968.65736 200.08 860.19636 375.693z" fill="#409EFF" p-id="77281"></path></svg>